# xmcd
# Track frame offsets:
# 150
# 13488
# 26597
# 39997
# 53794
# 66093
# 79072
# 92328
# 107391
# 121074
# 134081
# 146395
# 159456
# 172405
# 185699
# 199395
# 213083
# 227365
# 242973
# 256924
# 271554
# 285445
# 297990
# 313211
# 328068
#
# Disc length: 4552 seconds
# Revision: 1
# Processed by: cddbd v1.5.1PL0 Copyright (c) Steve Scherf et al.
# Submitted via: VisiTrax 2.9.10.228 - For more info visit www.synapsa.com
#
DISCID=6911c619
DTITLE=Charlie Poole - Charlie Poole with the North Carolina Ramblers #D
DYEAR=2004
DGENRE=Old Timey
TTITLE0=Under the Double Eagle
TTITLE1=Richmond Square
TTITLE2=Flop Eared Mule
TTITLE3=Lynchburg Town
TTITLE4=San Antonio
TTITLE5=What is a Home Without Babies
TTITLE6=Tennessee Blues
TTITLE7=May I Sleep In Your Barn
TTITLE8=A Trip To New York, Part 1
TTITLE9=A Trip To New York, Part 2
TTITLE10=A Trip To New York, Part 3
TTITLE11=A Trip To New York, Part 4
TTITLE12=Sweet Sixteen
TTITLE13=My Gypsy Girl
TTITLE14=The Only Girl I Ever Loved
TTITLE15=A Letter To My Mother
TTITLE16=If the River Was Whiskey
TTITLE17=It's Movin' Day
TTITLE18=Southern Medley
TTITLE19=Honeysuckle
TTITLE20=Goodbye Sweet Liza Jane
TTITLE21=Look Before You Leap
TTITLE22=Just Keep Waiting 'til the Good Time Comes
TTITLE23=Milwaukee Blues
TTITLE24=Where the Whippoorwill is Whispering Goodnight
EXTD=
EXTT0=
EXTT1=
EXTT2=
EXTT3=
EXTT4=
EXTT5=
EXTT6=
EXTT7=
EXTT8=
EXTT9=
EXTT10=
EXTT11=
EXTT12=
EXTT13=
EXTT14=
EXTT15=
EXTT16=
EXTT17=
EXTT18=
EXTT19=
EXTT20=
EXTT21=
EXTT22=
EXTT23=
EXTT24=
PLAYORDER=
